<svg xmlns="http://www.w3.org/2000/svg" viewBox="0 0 96 96" role="img" aria-label="Pokémon sprite unavailable">
  <defs>
    <linearGradient id="bg" x1="0" x2="1" y1="0" y2="1">
      <stop offset="0" stop-color="#20283a"/>
      <stop offset="1" stop-color="#111827"/>
    </linearGradient>
  </defs>
  <rect width="96" height="96" rx="22" fill="url(#bg)"/>
  <path d="M48 18c10 0 18 5 22 14 9 3 15 11 15 21 0 14-12 25-27 25H38c-15 0-27-11-27-25 0-10 6-18 15-21 4-9 12-14 22-14Z" fill="#6b7280" opacity="0.52"/>
  <circle cx="36" cy="46" r="4" fill="#111827" opacity="0.75"/>
  <circle cx="60" cy="46" r="4" fill="#111827" opacity="0.75"/>
  <path d="M39 62c5 4 13 4 18 0" fill="none" stroke="#111827" stroke-width="5" stroke-linecap="round" opacity="0.65"/>
</svg>
